<svg width="49" height="49" viewBox="0 0 49 49" fill="none" xmlns="http://www.w3.org/2000/svg">
<g opacity="0.66">
<path d="M3.36574 0.163635C1.82612 0.534285 -0.1982 3.0433 0.17245 4.09823C0.257984 4.2693 1.31291 4.78251 2.56742 5.21018C6.4735 6.60725 8.58336 7.86176 11.0924 10.3708C14.3712 13.6211 15.8253 16.8429 16.253 21.8324L16.424 23.9138L18.876 25.2253C26.232 29.2169 30.5943 33.9498 31.8488 39.31C32.0769 40.2794 32.3335 41.1348 32.419 41.2203C32.5046 41.3058 33.531 40.5075 34.6714 39.4241C38.0358 36.3163 41.001 34.7482 46.1046 33.4651L48.6991 32.8094L48.7846 27.8769C48.8132 25.1683 48.7846 22.7733 48.6991 22.5737C48.5851 22.2601 48.414 22.2601 47.7582 22.6022C45.5343 23.7427 42.9968 24.3129 40.0031 24.3129C36.6387 24.3129 34.7285 23.8567 31.7347 22.3456C24.6639 18.7817 20.2446 10.7414 20.6723 2.10242L20.7578 0.106614L12.3469 0.0781016C7.72801 0.0495895 3.67937 0.0781016 3.36574 0.163635Z" fill="black"/>
<path d="M25.5759 0.279183C25.4618 0.478764 25.2908 1.61923 25.2337 2.81671C24.8631 9.11777 28.3415 15.5329 33.5876 18.2415C36.2107 19.61 38.121 20.0377 40.801 19.8666C43.253 19.6956 45.5055 18.9257 47.5298 17.6142L48.8698 16.7018L48.7843 9.77353C48.6987 2.16094 48.6987 2.16095 46.7314 0.706856C45.9902 0.136625 45.534 0.108113 35.8685 0.0225787C28.1134 -0.0344443 25.7469 0.0225787 25.5759 0.279183Z" fill="black"/>
<path d="M0.086731 20.6635C0.115243 29.1885 0.200777 32.2962 0.485893 33.066C1.02761 34.6056 2.28212 36.0882 4.1924 37.4568C6.33076 38.9679 13.0025 42.3038 13.145 41.9046C13.202 41.7335 13.031 40.6786 12.8029 39.5381C12.1471 36.6015 11.7765 31.669 11.7765 26.1377C11.7765 18.9813 11.0352 16.5863 7.95592 13.5071C6.1882 11.7679 2.93789 9.85762 0.999101 9.48697L0.086731 9.28739V20.6635Z" fill="black"/>
<path d="M16.3385 30.8103C16.367 35.1156 17.3934 40.6183 18.6479 43.0703C20.0735 45.8644 22.8962 47.9172 25.8614 48.3164C27.0303 48.4875 27.1729 48.459 27.401 47.8317C27.8857 46.5487 28.0568 43.6405 27.7431 41.7017C27.3725 39.1927 26.0895 36.5982 24.3217 34.6594C22.497 32.6636 17.6785 29.3277 16.6236 29.3277C16.4525 29.3277 16.3385 29.955 16.3385 30.8103Z" fill="black"/>
<path d="M45.7623 38.1409C42.9397 38.9678 39.8604 40.6214 38.0072 42.3606C36.2109 44.0143 33.4453 47.4642 33.4453 48.0629C33.4453 48.3481 34.8424 48.4336 39.5183 48.4336C46.4181 48.4336 47.0453 48.2625 48.1858 46.2667C48.756 45.2688 48.8416 44.7556 48.8416 41.3627C48.8416 37.029 49.0411 37.2285 45.7623 38.1409Z" fill="black"/>
<path d="M0.086731 42.674C0.086731 45.4111 0.828032 47.0933 2.39617 47.9201C3.30854 48.3763 4.04984 48.4333 9.3815 48.3763L15.3404 48.2907L9.75215 45.5536C6.6729 44.0425 3.39407 42.2748 2.42468 41.619C1.4838 40.9918 0.542916 40.4501 0.400358 40.4501C0.200777 40.4501 0.086731 41.3054 0.086731 42.674Z" fill="black"/>
</g>
</svg>
