<svg width="73" height="73" viewBox="0 0 49 48" fill="none" xmlns="http://www.w3.org/2000/svg">
              <g opacity="0.66">
              <path d="M3.2497 0.163521C1.72384 0.530857 -0.282382 3.01745 0.0849551 4.06295C0.169725 4.23249 1.21522 4.7411 2.45852 5.16496C6.32968 6.54953 8.42068 7.79283 10.9073 10.2794C14.1568 13.5007 15.5979 16.6937 16.0217 21.6386L16.1913 23.7013L18.6213 25.0012C25.9116 28.9571 30.2348 33.6477 31.4781 38.96C31.7042 39.9207 31.9585 40.7684 32.0433 40.8532C32.128 40.9379 33.1453 40.1467 34.2755 39.073C37.6098 35.993 40.5485 34.4389 45.6065 33.1673L48.1778 32.5174L48.2626 27.629C48.2909 24.9446 48.2626 22.5711 48.1778 22.3733C48.0648 22.0625 47.8953 22.0625 47.2454 22.4015C45.0413 23.5318 42.5265 24.0969 39.5595 24.0969C36.2253 24.0969 34.3321 23.6448 31.3651 22.1472C24.3574 18.6151 19.9777 10.6468 20.4015 2.08498L20.4863 0.10701L12.1506 0.0787544C7.57298 0.050499 3.56053 0.0787506 3.2497 0.163521Z" fill="#3368F9"/>
              <path d="M3.2497 0.163521C1.72384 0.530857 -0.282382 3.01745 0.0849551 4.06295C0.169725 4.23249 1.21522 4.7411 2.45852 5.16496C6.32968 6.54953 8.42068 7.79283 10.9073 10.2794C14.1568 13.5007 15.5979 16.6937 16.0217 21.6386L16.1913 23.7013L18.6213 25.0012C25.9116 28.9571 30.2348 33.6477 31.4781 38.96C31.7042 39.9207 31.9585 40.7684 32.0433 40.8532C32.128 40.9379 33.1453 40.1467 34.2755 39.073C37.6098 35.993 40.5485 34.4389 45.6065 33.1673L48.1778 32.5174L48.2626 27.629C48.2909 24.9446 48.2626 22.5711 48.1778 22.3733C48.0648 22.0625 47.8953 22.0625 47.2454 22.4015C45.0413 23.5318 42.5265 24.0969 39.5595 24.0969C36.2253 24.0969 34.3321 23.6448 31.3651 22.1472C24.3574 18.6151 19.9777 10.6468 20.4015 2.08498L20.4863 0.10701L12.1506 0.0787544C7.57298 0.050499 3.56053 0.0787506 3.2497 0.163521Z" stroke="#779AFB"/>
              <path d="M25.2613 0.274914C25.1483 0.47271 24.9787 1.60298 24.9222 2.78976C24.5549 9.03449 28.0022 15.3922 33.2014 18.0766C35.801 19.4329 37.6942 19.8568 40.3504 19.6873C42.7804 19.5177 45.0127 18.7548 47.0189 17.455L48.347 16.5508L48.2622 9.68439C48.1775 2.13985 48.1775 2.13985 46.2278 0.698763C45.4931 0.133631 45.041 0.105371 35.462 0.0206032C27.7761 -0.0359116 25.4308 0.0206032 25.2613 0.274914Z" fill="#B6C2FF"/>
              <path d="M25.2613 0.274914C25.1483 0.47271 24.9787 1.60298 24.9222 2.78976C24.5549 9.03449 28.0022 15.3922 33.2014 18.0766C35.801 19.4329 37.6942 19.8568 40.3504 19.6873C42.7804 19.5177 45.0127 18.7548 47.0189 17.455L48.347 16.5508L48.2622 9.68439C48.1775 2.13985 48.1775 2.13985 46.2278 0.698763C45.4931 0.133631 45.041 0.105371 35.462 0.0206032C27.7761 -0.0359116 25.4308 0.0206032 25.2613 0.274914Z" stroke="#CCD4FF"/>
              <path d="M0 20.4787C0.0282567 28.9274 0.113027 32.0074 0.395594 32.7703C0.932471 34.2962 2.17576 35.7655 4.06896 37.1219C6.18821 38.6195 12.8003 41.9255 12.9416 41.5299C12.9981 41.3604 12.8285 40.3149 12.6025 39.1846C11.9526 36.2742 11.5852 31.3857 11.5852 25.904C11.5852 18.8115 10.8506 16.438 7.79885 13.3862C6.04693 11.6626 2.82567 9.76939 0.904214 9.40205L0 9.20425V20.4787Z" fill="#B6C2FF"/>
              <path d="M16.1065 30.534C16.1348 34.8008 17.152 40.2543 18.3953 42.6844C19.8081 45.4535 22.6055 47.488 25.5442 47.8836C26.7028 48.0532 26.844 48.0249 27.0701 47.4032C27.5505 46.1317 27.72 43.2495 27.4092 41.3281C27.0418 38.8415 25.7703 36.2701 24.0184 34.3487C22.21 32.3707 17.4346 29.0647 16.3891 29.0647C16.2195 29.0647 16.1065 29.6863 16.1065 30.534Z" fill="#6A90FF"/>
              <path d="M16.1065 30.534C16.1348 34.8008 17.152 40.2543 18.3953 42.6844C19.8081 45.4535 22.6055 47.488 25.5442 47.8836C26.7028 48.0532 26.844 48.0249 27.0701 47.4032C27.5505 46.1317 27.72 43.2495 27.4092 41.3281C27.0418 38.8415 25.7703 36.2701 24.0184 34.3487C22.21 32.3707 17.4346 29.0647 16.3891 29.0647C16.2195 29.0647 16.1065 29.6863 16.1065 30.534Z" stroke="#9DB6FF"/>
              <path d="M45.2673 37.7993C42.4699 38.6188 39.4182 40.2577 37.5815 41.9813C35.8013 43.6202 33.0604 47.0393 33.0604 47.6327C33.0604 47.9152 34.445 48 39.0791 48C45.9172 48 46.5389 47.8305 47.6691 45.8525C48.2343 44.8635 48.319 44.3549 48.319 40.9923C48.319 38.7032 48.3752 37.6903 47.9357 37.3804C47.5506 37.1088 46.7849 37.377 45.2673 37.7993Z" fill="#6A90FF"/>
              <path d="M45.2673 37.7993C42.4699 38.6188 39.4182 40.2577 37.5815 41.9813C35.8013 43.6202 33.0604 47.0393 33.0604 47.6327C33.0604 47.9152 34.445 48 39.0791 48C45.9172 48 46.5389 47.8305 47.6691 45.8525C48.2343 44.8635 48.319 44.3549 48.319 40.9923C48.319 38.7032 48.3752 37.6903 47.9357 37.3804C47.5506 37.1088 46.7849 37.377 45.2673 37.7993Z" stroke="#9BB4FF"/>
              <path d="M0 42.2915C0 45.0042 0.734674 46.6713 2.28879 47.4907C3.19301 47.9429 3.92768 47.9994 9.21168 47.9429L15.1173 47.8581L9.57902 45.1454C6.52729 43.6478 3.27778 41.8959 2.31705 41.246C1.38458 40.6244 0.452107 40.0875 0.310824 40.0875C0.113027 40.0875 0 40.9352 0 42.2915Z" fill="#6A90FF"/>
              <path d="M0 42.2915C0 45.0042 0.734674 46.6713 2.28879 47.4907C3.19301 47.9429 3.92768 47.9994 9.21168 47.9429L15.1173 47.8581L9.57902 45.1454C6.52729 43.6478 3.27778 41.8959 2.31705 41.246C1.38458 40.6244 0.452107 40.0875 0.310824 40.0875C0.113027 40.0875 0 40.9352 0 42.2915Z" stroke="#9CB4FF"/>
              </g>
              </svg>
              