<svg width="73" height="73" viewBox="0 0 73 73" fill="none" xmlns="http://www.w3.org/2000/svg">
<g opacity="0.66">
<path d="M4.90392 0.245487C2.60137 0.799805 -0.426061 4.55211 0.128257 6.12979C0.256177 6.38563 1.83385 7.15314 3.71 7.79274C9.55166 9.88209 12.707 11.7582 16.4593 15.5106C21.3629 20.3715 23.5375 25.1898 24.1771 32.6518L24.433 35.7645L28.1 37.7259C39.1011 43.6955 45.625 50.7737 47.5011 58.79C47.8422 60.2397 48.226 61.5189 48.3539 61.6469C48.4818 61.7748 50.0169 60.5809 51.7225 58.9606C56.7539 54.3128 61.1885 51.9676 68.821 50.0488L72.7012 49.0681L72.8292 41.6914C72.8718 37.6406 72.8292 34.0589 72.7012 33.7604C72.5307 33.2914 72.2748 33.2914 71.2941 33.803C67.9682 35.5086 64.1733 36.3614 59.6961 36.3614C54.6646 36.3614 51.8077 35.6792 47.3306 33.4193C36.7559 28.0893 30.1467 16.0649 30.7863 3.145L30.9142 0.16021L18.3355 0.117569C11.4278 0.0749283 5.37296 0.117569 4.90392 0.245487Z" fill="black"/>
<path d="M38.1198 0.414728C37.9492 0.713208 37.6934 2.4188 37.6081 4.20967C37.0538 13.6331 42.2558 23.227 50.1016 27.2778C54.0244 29.3245 56.8813 29.9641 60.8894 29.7083C64.5565 29.4525 67.925 28.3012 70.9524 26.3398L72.9565 24.9753L72.8286 14.6138C72.7007 3.22896 72.7007 3.22896 69.7585 1.05433C68.6499 0.201529 67.9676 0.158888 53.5127 0.0309699C41.9147 -0.0543096 38.3756 0.0309699 38.1198 0.414728Z" fill="black"/>
<path d="M0 30.9029C0.0426398 43.6522 0.170559 48.2999 0.596958 49.4512C1.40711 51.7538 3.28327 53.971 6.14014 56.0177C9.33813 58.2776 19.3158 63.2665 19.529 62.6696C19.6143 62.4137 19.3585 60.836 19.0174 59.1304C18.0367 54.7385 17.4823 47.3619 17.4823 39.0897C17.4823 28.3871 16.3737 24.8054 11.7686 20.2003C9.12493 17.5993 4.26398 14.7424 1.36447 14.1881L0 13.8896V30.9029Z" fill="black"/>
<path d="M24.305 46.0793C24.3476 52.5179 25.8827 60.7474 27.7588 64.4144C29.8908 68.5931 34.1122 71.6632 38.5467 72.2602C40.2949 72.516 40.5081 72.4734 40.8493 71.5353C41.5741 69.6165 41.83 65.2672 41.3609 62.3677C40.8066 58.6154 38.8878 54.7352 36.2441 51.8357C33.5152 48.8509 26.3091 43.862 24.7314 43.862C24.4756 43.862 24.305 44.8001 24.305 46.0793Z" fill="black"/>
<path d="M68.3091 57.0406C64.0878 58.2772 59.4827 60.7503 56.7111 63.3513C54.0248 65.8244 49.8887 70.9838 49.8887 71.8793C49.8887 72.3057 51.9781 72.4336 58.971 72.4336C69.2899 72.4336 70.2279 72.1778 71.9335 69.193C72.7863 67.7006 72.9142 66.9331 72.9142 61.8589C72.9142 55.3777 73.2127 55.6761 68.3091 57.0406Z" fill="black"/>
<path d="M0 63.8197C0 67.9132 1.10864 70.4289 3.45383 71.6655C4.8183 72.3477 5.92694 72.433 13.9006 72.3477L22.8123 72.2198L14.4549 68.1264C9.8498 65.8665 4.94622 63.2228 3.49647 62.2421C2.08935 61.304 0.682238 60.4938 0.469038 60.4938C0.170559 60.4938 0 61.773 0 63.8197Z" fill="black"/>
</g>
</svg>
