<svg width="19" height="22" viewBox="0 0 19 22" fill="none" xmlns="http://www.w3.org/2000/svg">
<path d="M0.380745 16.6294L5.92135 21.8059C5.98388 21.8672 6.05909 21.9161 6.14242 21.9494C6.22576 21.9828 6.31548 22 6.40615 22C6.49682 22 6.58654 21.9828 6.66987 21.9494C6.75321 21.9161 6.82842 21.8672 6.89095 21.8059L12.4316 16.6294C12.5601 16.5093 12.6324 16.3464 12.6324 16.1765C12.6324 16.0066 12.5601 15.8437 12.4316 15.7235C12.303 15.6034 12.1286 15.5359 11.9468 15.5359C11.7649 15.5359 11.5905 15.6034 11.462 15.7235L7.09873 19.7892V11C7.10178 8.42672 8.19727 5.95965 10.1449 4.14006C12.0924 2.32047 14.7331 1.29697 17.4874 1.29412C17.671 1.29412 17.8472 1.22595 17.9771 1.1046C18.107 0.983252 18.1799 0.81867 18.1799 0.647059C18.1799 0.475448 18.107 0.310866 17.9771 0.189519C17.8472 0.068172 17.671 0 17.4874 0C14.3666 0.00570017 11.3755 1.16646 9.16877 3.22812C6.96208 5.28979 5.71968 8.08437 5.71357 11V19.7892L1.35035 15.7235C1.22177 15.6034 1.04738 15.5359 0.865547 15.5359C0.68371 15.5359 0.509321 15.6034 0.380745 15.7235C0.252167 15.8437 0.179932 16.0066 0.179932 16.1765C0.179932 16.3464 0.252167 16.5093 0.380745 16.6294Z" fill="#575757"/>
</svg>
